<?xml version="1.0" encoding="utf-8"?>
<!-- Generator: Adobe Illustrator 25.0.1, SVG Export Plug-In . SVG Version: 6.00 Build 0)  -->
<svg version="1.1" id="レイヤー_1" xmlns="http://www.w3.org/2000/svg" xmlns:xlink="http://www.w3.org/1999/xlink" x="0px"
	 y="0px" width="276px" height="37px" viewBox="0 0 276 37" style="enable-background:new 0 0 276 37;" xml:space="preserve">
<style type="text/css">
	.st0{fill:#FFFFFF;}
</style>
<g>
	<g>
		<path class="st0" d="M118.1,16.8v-4h4v4H118.1z M130.1,4.8v27.9h-4v-20h-4v-4h4v-4H130.1z"/>
	</g>
	<path class="st0" d="M97.5,12.9v-4h4v4H97.5z M113.7,33.1H97.5V25h4v4h12.1L113.7,33.1L113.7,33.1z M109.7,8.8h-8.1v-4h8.1V8.8z
		 M101.6,25v-4h4v4H101.6z M105.6,21v-4h4v4H105.6z M109.7,16.9V8.8h4v8.1C113.7,16.9,109.7,16.9,109.7,16.9z"/>
	<path class="st0" d="M4.5,25h-4V12.9h4V25z M4.5,12.9V4.8h4v8.1C8.5,12.9,4.5,12.9,4.5,12.9z M8.5,33.1h-4V25h4V33.1z M8.5,4.8v-4
		h4v4H8.5z M8.5,33.1h4v4h-4V33.1z"/>
	<path class="st0" d="M20.7,29.1h-4V8.8h4V29.1z M28.7,8.8h-8.1v-4h8.1V8.8z M32.8,33.1H20.7v-4h12.1C32.8,29.1,32.8,33.1,32.8,33.1
		z M28.7,8.8h4v4h-4V8.8z"/>
	<path class="st0" d="M36.8,4.8v-4h4v4h4v8.1h4V25h-4v8.1h-4V25h4V12.9h-4V4.8H36.8z M36.8,37.1v-4h4v4H36.8z"/>
	<path class="st0" d="M57,12.9v-4h4v4H57z M73.2,33.1H57V25h4v4h12.1L73.2,33.1L73.2,33.1z M69.2,8.8h-8.1v-4h8.1V8.8z M61.1,25v-4
		h4v4H61.1z M65.1,21v-4h4v4H65.1z M69.2,16.9V8.8h4v8.1C73.2,16.9,69.2,16.9,69.2,16.9z"/>
	<path class="st0" d="M89.4,29.1V16.9h-4v4h-4V29h-4V8.8h4v8.1h4v-4h4v-4h4v20.2C93.4,29.1,89.4,29.1,89.4,29.1z M89.4,8.8h-8.1v-4
		h8.1V8.8z M89.4,33.1h-8.1v-4h8.1V33.1z"/>
	<path class="st0" d="M162.2,25v8.1h-4V4.8h12.1v4h4V21h-4v4H162.2z M162.2,21h8.1V8.8h-8.1V21z"/>
	<path class="st0" d="M182.4,21v12.1h-4V4.8h12.1v4h4v8.1h-4v4L182.4,21L182.4,21z M182.4,16.9h8.1V8.8h-8.1V16.9z M194.5,21v12.1
		h-4V21H194.5z"/>
	<path class="st0" d="M202.6,33.1v-4h4V8.8h-4v-4h12.1v4h-4V29h4v4L202.6,33.1L202.6,33.1z"/>
	<path class="st0" d="M222.8,29.1h-4V8.8h4V29.1z M230.9,8.8h-8.1v-4h8.1V8.8z M235,33.1h-12.1v-4H235V33.1z M230.9,8.8h4v4h-4V8.8z
		"/>
	<path class="st0" d="M255.2,33.1H239V4.8h16.2v4H243v8.1h8.1v4H243V29h12.1L255.2,33.1L255.2,33.1z"/>
	<path class="st0" d="M263.3,21v12.1h-4V4.8h12.1v4h4v8.1h-4v4L263.3,21L263.3,21z M263.3,16.9h8.1V8.8h-8.1V16.9z M275.4,21v12.1
		h-4V21H275.4z"/>
</g>
</svg>
