<?xml version="1.0" encoding="utf-8"?>
<svg version="1.1" id="レイヤー_1" xmlns="http://www.w3.org/2000/svg" xmlns:xlink="http://www.w3.org/1999/xlink" x="0px"
	 y="0px" width="168px" height="45px" viewBox="0 0 168.2 45" style="enable-background:new 0 0 168.2 45;" xml:space="preserve">
<g>
	<path d="M1,10.9V7.3h18V0.1h3.6v7.2h18v3.6H29.8v10.8h-3.6V10.9H19v10.8h-3.6v3.6h18v7.2h-3.6v3.6h-3.6v3.6h14.4v3.6H26.2v-3.6
		H15.4v-7.2H19v3.6h7.2v-3.6h3.6v-3.6h-18v-7.2h3.6V10.9H1z M1,21.7v-3.6h3.6v3.6H1z M1,43.3v-3.6h14.4v3.6H1z M4.6,18.1v-3.6h3.6
		v3.6H4.6z M4.6,32.5v-3.6h7.2v3.6H4.6z M33.4,18.1v-3.6H37v3.6h3.6v3.6H37v-3.6H33.4z"/>
	<path d="M49.4,43.3v-3.6H53v-7.2h-3.6v-3.6H53V14.5h-3.6v-3.6H53V3.7h3.6v7.2h7.2V7.3h3.6v3.6h10.8V7.3H67.4V3.7h18v3.6h-3.6v3.6
		H89v21.6h-7.2v3.6h3.6v3.6H89v3.6h-3.6v-3.6h-3.6v-3.6h-3.6v-3.6h-3.6v3.6H71v3.6h-3.6v-3.6H71v-3.6H60.2v-3.6h3.6V14.5h-7.2v10.8
		h3.6v3.6h-3.6v14.4H49.4z M60.2,43.3v-3.6h7.2v3.6H60.2z M67.4,28.9h7.2v-3.6h3.6V14.5h-3.6v7.2H71v3.6h-3.6V28.9z M71,21.7v-7.2
		h-3.6v7.2H71z M78.2,28.9h7.2v-3.6h-7.2V28.9z M85.4,21.7v-7.2h-3.6v7.2H85.4z"/>
	<path d="M93.5,14.5v-3.6h21.6V3.7h3.6v7.2h14.4v3.6h-14.4v21.6h-3.6v3.6h-3.6v-3.6h3.6v-3.6h-7.2v-3.6h7.2v-7.2h-7.2v7.2h-3.6v-7.2
		h3.6v-3.6h7.2v-3.6H93.5z M104.3,43.3v-3.6h7.2v3.6H104.3z"/>
	<path d="M138.8,28.9v-3.6h3.6v3.6H138.8z M142.3,10.9V7.3h21.6v3.6h-3.6v3.6h-3.6v3.6h3.6v3.6h3.6v3.6h3.6v10.8h-3.6v3.6h-3.6v3.6
		h-14.4v-3.6h7.2v-7.2h3.6v7.2h3.6v-3.6h3.6V25.3h-3.6v-3.6h-10.8v3.6h-7.2v-3.6h7.2v-3.6h3.6v-3.6h3.6v-3.6
		C156.7,10.9,142.3,10.9,142.3,10.9z M145.9,39.7h-3.6v-7.2h3.6V39.7z M153.1,32.5h-7.2v-3.6h7.2V32.5z"/>
</g>
</svg>
